<svg xmlns="http://www.w3.org/2000/svg" viewBox="0 0 100 100">
  <!-- navy circle bg -->
  <circle cx="50" cy="50" r="50" fill="#0f1624"/>
  <!-- lime green ring -->
  <circle cx="50" cy="50" r="46" fill="none" stroke="#c8f135" stroke-width="3"/>
  <!-- RWL logo scaled and centered -->
  <g transform="translate(50,50) scale(0.28) translate(-145,-147)">
    <path fill="#ffffff" d="M 34.84375 89.296875 L 101.179688 209.296875 C 102.175781 211.03125 104.671875 211.015625 105.648438 209.273438 L 126.089844 168.085938 C 126.523438 167.3125 126.53125 166.367188 126.105469 165.589844 L 103.003906 123.089844 C 102.070312 121.371094 103.308594 119.277344 105.261719 119.277344 L 123.992188 119.277344 C 126.34375 119.277344 128.527344 120.488281 129.769531 122.488281 L 139.667969 138.367188 C 140.699219 140.023438 143.128906 139.972656 144.089844 138.269531 L 172.460938 88.027344 C 173.429688 86.304688 172.191406 84.175781 170.21875 84.175781 L 37.792969 84.175781 C 35.171875 84.175781 33.535156 87.019531 34.84375 89.296875 Z"/>
    <path fill="#ffffff" d="M 206.457031 84.175781 C 205.539062 84.175781 204.691406 84.664062 204.230469 85.460938 L 157.867188 165.566406 C 157.410156 166.359375 157.402344 167.332031 157.847656 168.125 L 180.898438 209.222656 C 181.351562 210.035156 182.210938 210.539062 183.140625 210.539062 L 183.589844 210.539062 C 184.808594 210.539062 185.933594 209.886719 186.542969 208.828125 L 255.335938 89.296875 C 256.648438 87.019531 255.007812 84.175781 252.386719 84.175781 Z"/>
    <path fill="#ffffff" d="M 147.773438 210.539062 C 149.804688 210.539062 151.03125 208.289062 149.941406 206.574219 L 144.257812 197.625 C 143.214844 195.984375 140.804688 196.046875 139.847656 197.738281 L 134.796875 206.6875 C 133.824219 208.40625 135.066406 210.539062 137.035156 210.539062 Z"/>
  </g>
</svg>