<svg width="167" height="20" viewBox="0 0 167 20" fill="none" xmlns="http://www.w3.org/2000/svg">
<path d="M41.9424 17.9766V2.21286H47.9728C49.059 2.21286 50.0182 2.4033 50.8505 2.78417C51.6969 3.16503 52.3599 3.72928 52.8395 4.47691C53.3191 5.22454 53.5589 6.1485 53.5589 7.24878C53.5589 8.32086 53.312 9.23776 52.8183 9.9995C52.3246 10.7471 51.6616 11.3114 50.8293 11.6922L54.4264 17.9766H50.7447L46.8514 11.0151L48.9673 12.2635H45.2221V17.9766H41.9424ZM45.2221 9.40704H47.994C48.4595 9.40704 48.8615 9.31535 49.2001 9.13196C49.5386 8.94858 49.7996 8.69467 49.983 8.37023C50.1804 8.04579 50.2792 7.67197 50.2792 7.24878C50.2792 6.81149 50.1804 6.43062 49.983 6.10618C49.7996 5.78174 49.5386 5.52783 49.2001 5.34445C48.8615 5.16106 48.4595 5.06937 47.994 5.06937H45.2221V9.40704ZM56.7961 17.9766V2.21286H67.3969V5.06937H60.0758V8.6453H66.9737V11.5018H60.0758V15.1201H67.3969V17.9766H56.7961ZM68.8329 17.9766L74.1651 2.21286H78.5239L83.8561 17.9766H80.2801L79.2222 14.7603H73.4457L72.3877 17.9766H68.8329ZM74.3555 11.9038H78.3123L75.9002 4.45575H76.7888L74.3555 11.9038ZM86.2348 17.9766V2.21286H89.5145V15.1201H96.1797V17.9766H86.2348ZM100.021 17.9766L95.8954 2.21286H99.4502L102.561 15.4163H101.608L104.888 2.21286H108.274L111.553 15.4163H110.601L113.712 2.21286H117.266L113.14 17.9766H109.332L106.031 5.28097H107.131L103.83 17.9766H100.021ZM127.12 18.2305C125.935 18.2305 124.835 18.0259 123.819 17.6169C122.804 17.2078 121.915 16.6365 121.153 15.9029C120.406 15.1553 119.82 14.2878 119.397 13.3004C118.974 12.3129 118.762 11.2408 118.762 10.0841C118.762 8.92742 118.967 7.85535 119.376 6.86792C119.799 5.88048 120.384 5.02 121.132 4.28648C121.894 3.55296 122.782 2.98165 123.798 2.57257C124.814 2.16349 125.921 1.95895 127.12 1.95895C128.319 1.95895 129.426 2.16349 130.442 2.57257C131.458 2.98165 132.339 3.55296 133.087 4.28648C133.849 5.02 134.434 5.88048 134.843 6.86792C135.266 7.85535 135.478 8.92742 135.478 10.0841C135.478 11.2408 135.266 12.3129 134.843 13.3004C134.42 14.2878 133.828 15.1553 133.066 15.9029C132.318 16.6365 131.437 17.2078 130.421 17.6169C129.405 18.0259 128.305 18.2305 127.12 18.2305ZM127.12 15.2682C127.84 15.2682 128.503 15.1412 129.109 14.8873C129.73 14.6334 130.273 14.2807 130.738 13.8293C131.204 13.3638 131.564 12.8137 131.817 12.1789C132.071 11.5441 132.198 10.8459 132.198 10.0841C132.198 9.3224 132.071 8.63119 131.817 8.01052C131.564 7.37574 131.204 6.8256 130.738 6.36009C130.273 5.89459 129.73 5.54193 129.109 5.30213C128.503 5.04821 127.84 4.92126 127.12 4.92126C126.401 4.92126 125.731 5.04821 125.11 5.30213C124.503 5.54193 123.967 5.89459 123.502 6.36009C123.036 6.8256 122.677 7.37574 122.423 8.01052C122.169 8.63119 122.042 9.3224 122.042 10.0841C122.042 10.8459 122.169 11.5441 122.423 12.1789C122.677 12.8137 123.036 13.3638 123.502 13.8293C123.967 14.2807 124.503 14.6334 125.11 14.8873C125.731 15.1412 126.401 15.2682 127.12 15.2682ZM138.545 17.9766V2.21286H144.575C145.661 2.21286 146.62 2.4033 147.453 2.78417C148.299 3.16503 148.962 3.72928 149.442 4.47691C149.921 5.22454 150.161 6.1485 150.161 7.24878C150.161 8.32086 149.914 9.23776 149.421 9.9995C148.927 10.7471 148.264 11.3114 147.432 11.6922L151.029 17.9766H147.347L143.454 11.0151L145.57 12.2635H141.824V17.9766H138.545ZM141.824 9.40704H144.596C145.062 9.40704 145.464 9.31535 145.802 9.13196C146.141 8.94858 146.402 8.69467 146.585 8.37023C146.783 8.04579 146.881 7.67197 146.881 7.24878C146.881 6.81149 146.783 6.43062 146.585 6.10618C146.402 5.78174 146.141 5.52783 145.802 5.34445C145.464 5.16106 145.062 5.06937 144.596 5.06937H141.824V9.40704ZM153.398 17.9766V2.21286H156.678V10.1053L155.768 9.7879L162.074 2.21286H166.179L159.937 9.74558L160.127 7.41806L166.306 17.9766H162.476L158.625 11.3114L156.678 13.6601V17.9766H153.398Z" fill="white"/>
<path fill-rule="evenodd" clip-rule="evenodd" d="M0.0701035 0.776795L10.1568 18.2565C10.3083 18.5191 10.688 18.517 10.8365 18.2528L13.9445 12.7256C14.0106 12.6082 14.0115 12.465 13.947 12.3467L10.4342 5.90155C10.2921 5.64089 10.4808 5.32318 10.7776 5.32318H13.6258C13.983 5.32318 14.315 5.50721 14.5043 5.81013L16.0091 8.21836C16.1662 8.46984 16.5351 8.46185 16.6812 8.20379L20.9951 0.583884C21.1427 0.323118 20.9544 0 20.6547 0H0.518702C0.120051 0 -0.129144 0.431508 0.0701035 0.776795ZM26.1644 0C26.0249 0 25.896 0.0742311 25.826 0.194839L18.7762 12.3436C18.7067 12.4633 18.7057 12.6109 18.7736 12.7316L22.2782 18.964C22.3474 19.0872 22.4778 19.1634 22.6191 19.1634H22.6877C22.8728 19.1634 23.0438 19.0647 23.1363 18.9044L33.5968 0.776794C33.7961 0.431507 33.5469 0 33.1482 0H26.1644ZM17.2414 19.1634C17.5502 19.1634 17.7372 18.8225 17.5714 18.5621L16.707 17.2051C16.5485 16.9562 16.1821 16.9657 16.0367 17.2225L15.2684 18.5796C15.1208 18.8403 15.3092 19.1634 15.6088 19.1634H17.2414Z" fill="white"/>
</svg>
